<?xml version="1.0" encoding="UTF-8"?>
<svg id="Layer_1" data-name="Layer 1" xmlns="http://www.w3.org/2000/svg" width="230.0005mm" height="35.6517mm" viewBox="0 0 651.97 101.06">
  <defs>
    <style>
      .cls-1 {
        fill: #00bed6;
      }

      .cls-2 {
        fill: #00c4b3;
      }

      .cls-3 {
        fill: #fff;
      }

      .cls-4 {
        fill: #1c252d;
      }
    </style>
  </defs>
  <g>
    <rect class="cls-3" x="553.7" width="98.27" height="98.27"/>
    <g>
      <polygon class="cls-1" points="647.05 34.4 647.05 4.91 558.61 4.91 558.61 49.14 647.05 34.4"/>
      <path class="cls-2" d="M558.61,54.05v39.31h88.44v-54.05l-88.44,14.74Z"/>
    </g>
    <g>
      <path class="cls-3" d="M610.12,71.18h-2.14c-.14,0-.23.09-.23.23v2.37c0,.14.09.23.23.23l2.14-.27c.17-.03.23-.09.23-.23v-2.1c0-.14-.09-.23-.23-.23Z"/>
      <path class="cls-3" d="M610.12,76.47l-2.14.27c-.15.01-.23.09-.23.23v11.24c0,.14.09.23.23.23h2.14c.14,0,.23-.09.23-.23v-11.51c0-.14-.09-.23-.23-.23Z"/>
      <path class="cls-3" d="M626.44,79.76h-5.23c-.14,0-.23.09-.23.23v1.86c0,.14.1.23.23.23h2.6c.09,0,.14.05.14.14,0,.9-.09,1.55-.26,2.04-.42,1.28-1.6,1.98-3,1.98-1.6,0-2.53-.79-2.97-2.07-.19-.58-.28-1.39-.28-3.63,0-2.25.09-3.04.28-3.62.44-1.28,1.37-2.07,2.97-2.07,1.53,0,2.49.7,3.18,1.95.05.09.16.16.3.12l1.95-.86c.12-.07.14-.21.09-.33-.65-1.77-2.56-3.35-5.51-3.35-2.79,0-4.83,1.3-5.65,3.81-.32.97-.42,1.86-.42,4.34,0,2.49.1,3.37.42,4.35.81,2.51,2.86,3.81,5.65,3.81,2.72,0,4.81-1.42,5.58-3.88.26-.79.37-2.16.37-3.46v-1.37c.02-.13-.07-.22-.21-.22Z"/>
      <path class="cls-3" d="M636.78,72.88c-.04-.14-.14-.23-.3-.23h-2.14c-.16,0-.25.09-.3.23l-5.41,15.33c-.05.14,0,.23.17.23h2.25c.16,0,.25-.07.3-.23l1.04-3.07h5.95l1.04,3.07c.05.16.14.23.3.23h2.28c.16,0,.21-.09.16-.23l-5.34-15.33ZM633.23,82.71l2.11-6.14h.07l2.09,6.14h-4.27Z"/>
    </g>
  </g>
  <g>
    <g>
      <g>
        <path class="cls-4" d="M322.39,34.63c.17-.47.51-.78,1.07-.78h7.5c.57,0,.9.31,1.06.78l18.78,53.04c.15.47,0,.78-.57.78h-8c-.58,0-.91-.24-1.07-.78l-3.67-11.87h-20.89l-3.68,11.87c-.15.55-.49.78-1.06.78h-7.92c-.57,0-.73-.31-.57-.78l19.02-53.04ZM334.55,67.6l-7.35-20.57h-.24l-7.43,20.57h15.02Z"/>
        <path class="cls-4" d="M358.2,44.05c-.49,0-.81-.31-.81-.78v-8.53c0-.47.32-.77.81-.77l7.51,1.33c.49,0,.81.32.81.78v7.19c0,.46-.32.78-.81.78h-7.51ZM358.2,88.45c-.49,0-.81-.32-.81-.79v-36.04c0-.47.32-.78.81-.78h7.51c.49,0,.81.31.81.78v36.05c0,.47-.32.79-.81.79h-7.51v-.01Z"/>
        <path class="cls-4" d="M510.93,50.86v-.02c-4.98,0-8.34,1.08-10.21,3.97l-.08.86v-4.05c0-.48-.33-.78-.82-.78h-7.51c-.49,0-.81.31-.81.78v36.04c0,.47.32.79.81.79h7.51c.49,0,.82-.32.82-.79v-19.5c0-6.01,2.3-9.52,7.42-9.52l1.45.02v-.02c.5,0,.83-.31.83-.78l1.4-6.21c.01-.47-.33-.79-.81-.79"/>
        <path class="cls-4" d="M397.5,50.86v-.02c-4.97,0-8.31,1.08-10.19,3.97l-.09.86v-4.05c0-.48-.33-.78-.81-.78h-7.51c-.48,0-.82.31-.82.78v36.04c0,.47.33.79.82.79h7.51c.48,0,.81-.32.81-.79v-19.5c0-6.01,2.29-9.52,7.43-9.52l1.46.02v-.02c.49,0,.81-.31.81-.78l1.41-6.21c-.01-.47-.33-.79-.83-.79"/>
        <path class="cls-4" d="M407.35,99.73c-.49,0-.83-.3-.83-.77v-47.34c0-.47.34-.78.83-.78h7.51c.49,0,.81.31.81.78v2.81h.09c1.87-2.58,5.14-4.45,10.44-4.45,6.7,0,11.59,3.04,13.63,9.04.97,2.89,1.39,5.55,1.39,10.61,0,5.08-.41,7.72-1.39,10.61-2.04,6.01-6.93,9.05-13.63,9.05-5.3,0-8.57-1.87-10.44-4.45h-.09v15.44c0,.47-.32.78-.81.78l-7.51-1.33ZM431.09,76.67c.57-1.72.81-3.58.81-7.03,0-3.43-.24-5.31-.81-7.02-1.06-3.12-3.59-4.84-7.26-4.84-3.76,0-6.28,1.72-7.35,4.84-.57,1.71-.82,3.59-.82,7.02,0,3.45.25,5.31.82,7.03,1.06,3.12,3.59,4.83,7.35,4.83,3.67,0,6.2-1.71,7.26-4.83"/>
        <path class="cls-4" d="M449.65,78.93c-.89-2.66-1.3-5.16-1.3-9.29s.4-6.63,1.3-9.29c2.22-6.55,8.24-10.37,16.25-10.37,7.91,0,13.95,3.82,16.17,10.37.89,2.66,1.29,5.16,1.29,9.29s-.4,6.63-1.29,9.29c-2.22,6.55-8.26,10.37-16.17,10.37-8.01,0-14.03-3.82-16.25-10.37M473.24,76.58c.65-1.95.82-3.74.82-6.94s-.17-4.92-.82-6.95c-1.14-3.12-3.67-4.91-7.34-4.91s-6.29,1.8-7.43,4.91c-.65,2.03-.82,3.74-.82,6.95,0,3.2.16,4.99.82,6.94,1.13,3.12,3.76,4.92,7.43,4.92s6.2-1.8,7.34-4.92"/>
        <path class="cls-4" d="M519.94,59.01v18.91c0,7.33,3.02,11,10.95,11h5.87c.48,0,.8-.31.8-.78l1.4-6.24c0-.47-.31-.78-.8-.78h-5.4c-2.52,0-3.68-.85-3.68-3.51v-18.6c0-.31.17-.47.5-.47h4.64c.49,0,.81-.31.81-.78l.04-6.14c0-.47-.33-.78-.82-.78h-4.66c-.33,0-.5-.15-.5-.47v-12.11c0-.47-.32-.78-.8-.78l-7.51,2.44c-.5,0-.83.32-.83.78v18.31h-.01Z"/>
      </g>
      <path class="cls-4" d="M378.08,43.77v-.94c0-.16.12-.28.28-.28,5.6.1,89.99,1.01,150.33-22.88.19-.07.39.06.39.26v3.37c0,.11-.07.21-.17.26-25.29,10.38-64.29,15.29-93.28,17.58-29.7,2.35-54.39,2.89-57.26,2.9-.17.01-.29-.11-.29-.27Z"/>
    </g>
    <g>
      <path class="cls-4" d="M0,35.7c0-.51.33-.85.82-.85l8,1.47c.48,0,.81.33.81.85v50.44c0,.51-.33.86-.81.86H.82c-.49,0-.82-.34-.82-.86v-51.91Z"/>
      <path class="cls-4" d="M154.46,88.47c-.5,0-.82-.31-.82-.78v-21.69c0-4.84-2.53-8.19-7.43-8.19-4.74,0-7.51,3.35-7.51,8.19v21.69c0,.47-.32.78-.82.78h-7.51c-.49,0-.81-.31-.81-.78v-36.05c0-.47.33-.78.81-.78h7.51c.49,0,.82.31.82.78v2.73h.09c1.71-2.34,5.15-4.37,10.37-4.37,8.41,0,13.63,5.93,13.63,13.97v23.72c0,.47-.32.78-.82.78h-7.51Z"/>
      <path class="cls-4" d="M183.28,84.88h-.08v2.81c0,.47-.32.78-.81.78h-7.51c-.49,0-.83-.31-.83-.78v-46.97c0-.46.34-.77.83-.77l7.51,1.34c.5,0,.81.3.81.78v12.38h.08c1.88-2.58,5.15-4.45,10.45-4.45,6.69,0,11.58,3.04,13.63,9.05.98,2.89,1.39,5.55,1.39,10.62s-.41,7.72-1.39,10.6c-2.04,6.01-6.94,9.05-13.63,9.05-5.31,0-8.57-1.86-10.45-4.44M198.62,76.69c.59-1.72.82-3.58.82-7.02,0-3.43-.23-5.3-.82-7.02-1.06-3.12-3.58-4.84-7.26-4.84-3.76,0-6.29,1.71-7.35,4.84-.57,1.72-.82,3.59-.82,7.02,0,3.44.25,5.3.82,7.02,1.05,3.12,3.59,4.84,7.35,4.84,3.68,0,6.19-1.72,7.26-4.84"/>
      <path class="cls-4" d="M242.03,88.47c-.48,0-.81-.31-.81-.78v-2.73h-.08c-2.13,2.58-5.23,4.37-10.21,4.37-8.4,0-13.55-5.94-13.55-13.97v-23.72c0-.47.33-.78.81-.78l7.52,1.34c.49,0,.81.31.81.78v20.35c0,4.84,2.37,8.19,7.34,8.19,4.65,0,7.35-3.35,7.35-8.11v-21.77c0-.47.33-.78.81-.78l7.51,1.34c.49,0,.82.31.82.78v34.71c0,.47-.32.78-.82.78h-7.5Z"/>
      <path class="cls-4" d="M272.42,88.94c-7.67,0-10.78-3.51-10.78-10.76v-37.46c0-.46.33-.78.82-.78l7.51,1.34c.49,0,.82.31.82.78v35.64c0,2.59,1.06,3.44,3.43,3.44h1.8c.49,0,.8.31.8.78v6.24c0,.47-.31.78-.8.78,0,0-3.6,0-3.6,0Z"/>
      <path class="cls-4" d="M58.88,77.94c0,7.33,3.01,11,10.93,11h5.87c.5,0,.82-.31.82-.78l1.39-6.24c0-.47-.32-.78-.82-.78h-5.38c-2.54,0-3.67-.85-3.67-3.51v-18.6c0-.31.16-.47.49-.47h8.84c.49,0,.82-.31.82-.78l1.4-6.14c0-.47-.33-.78-.81-.78h-10.25c-.33,0-.49-.15-.49-.47v-8.34c0-.47-.33-.78-.82-.78l-7.51-1.34c-.49,0-.81.32-.81.78v37.23Z"/>
      <path class="cls-4" d="M118.49,70.43v-4.6c0-10.58-5.22-14.96-13.63-14.96h-13.43c-.5,0-.82.31-.82.78l1.39,6.21c0,.48.33.8.82.8h7.5l.2.01c4.55,0,8.94,1.05,9.33,6.11,0-.01,0-.03-.01-.04v.72c0,.31-.17.47-.5.47h-8c-9.71,0-15.75,3.74-15.75,11.94,0,7.88,6.05,11.46,13.23,11.46,5.54,0,9.22-1.79,11.09-4.36h.09v2.73c0,.46.32.78.81.78h6.86c.49,0,.82-.32.82-.78v-17.27ZM109.84,75.83c0,4.29-3.1,6.4-8.74,6.4-4.41,0-6.77-1.56-6.77-4.68,0-3.51,2.61-5.08,8.49-5.08h6.52c.33,0,.5.15.5.47v2.89Z"/>
      <path class="cls-4" d="M28.8,62.75c0,2.26.89,3.61,3.52,3.61l1.11-.02,5.79-.04v.03h.28c7.66,0,10.76,3.44,10.76,10.55v1.06c0,7.1-3.1,10.55-10.76,10.55h-17.28c-.49,0-.83-.32-.83-.8l1.41-6.04c0-.48.33-.8.82-.8h14.08c2.37,0,3.77-.84,3.77-3.37l-.03-.82c0-2.26-.87-3.6-3.51-3.6l-1.01-.03h-2.63l-3.52.03c-7.67,0-10.78-3.44-10.78-10.55v-2.01c0-.06.03-.11.04-.16.31-6.39,3.47-9.48,10.74-9.48h15.76c.48,0,.81.31.81.8l-1.41,6.04c0,.48-.32.8-.81.8h-5.91l-3.84-.01h-2.8c-2.37,0-3.77.84-3.77,3.36,0,0,0,.9,0,.9Z"/>
    </g>
  </g>
</svg>